<?xml version="1.0" encoding="UTF-8"?>
<svg
  version="1.1"
  xmlns="http://www.w3.org/2000/svg"
  width="225"
  height="225"
  viewBox="0 0 225 225"
>

  <!-- Gradient Definition -->
  <defs>
    <linearGradient id="logoGradient" x1="0%" y1="0%" x2="100%" y2="0%">
      <stop offset="0%" stop-color="rgb(217, 70, 239)" />
      <stop offset="50%" stop-color="rgb(220, 38, 38)" />
      <stop offset="100%" stop-color="rgb(251, 146, 60)" />
    </linearGradient>
  </defs>

  <!-- Background (Transparent) -->
  <path
    d="M0 0 C74.25 0 148.5 0 225 0 C225 74.25 225 148.5 225 225 C150.75 225 76.5 225 0 225 C0 150.75 0 76.5 0 0 Z"
    fill="transparent"
  />

  <!-- Logo Shape -->
  <path
    d="M0 0 C1.11 0.94 2.21 1.89 3.32 2.83
       C3.93 3.35 4.55 3.88 5.18 4.42
       C9.43 8.11 13.41 12.1 17.41 16.06
       C18.48 17.11 19.55 18.16 20.63 19.2
       C22.21 20.72 23.76 22.25 25.31 23.79
       C26.24 24.69 27.16 25.6 28.11 26.53
       C30 29 30 29 29.99 31.11
       C28.86 33.27 27.64 34.73 25.91 36.45
       C25.29 37.07 24.67 37.69 24.03 38.33
       C23.38 38.96 22.73 39.6 22.06 40.25
       C21.42 40.9 20.77 41.55 20.1 42.22
       C15.27 47 15.27 47 13 47
       C13 47.66 13 48.32 13 49
       C10.62 51.63 10.62 51.63 8 54
       C7.34 54 6.68 54 6 54
       C6 54.66 6 55.32 6 56
       C5.34 56 4.68 56 4 56
       C4 56.66 4 57.32 4 58
       C2.74 59.23 2.74 59.23 0.88 60.75
       C-3.43 64.41 -7.44 68.32 -11.44 72.31
       C-12.38 73.25 -12.38 73.25 -13.34 74.2
       C-13.93 74.79 -14.51 75.38 -15.12 75.99
       C-15.92 76.79 -15.92 76.79 -16.73 77.6
       C-18.11 78.99 -18.11 78.99 -19 81
       C-19.66 81 -20.32 81 -21 81
       C-21 81.66 -21 82.32 -21 83
       C-21.66 83 -22.32 83 -23 83
       C-23 83.66 -23 84.32 -23 85
       C-25.38 87.62 -25.38 87.62 -28 90
       C-28.66 90 -29.32 90 -30 90
       C-30 90.66 -30 91.32 -30 92
       C-30.66 92 -31.32 92 -32 92
       C-32 92.66 -32 93.32 -32 94
       C-34.38 96.62 -34.38 96.62 -37 99
       C-37.66 99 -38.32 99 -39 99
       C-39.66 100.98 -40.32 102.96 -41 105
       C-17.57 128.43 5.86 151.86 30 176
       C26.15 180.5 22.35 184.79 18.16 188.93
       C17.64 189.46 17.12 189.98 16.58 190.52
       C14.93 192.16 13.28 193.8 11.62 195.44
       C10.5 196.56 9.37 197.69 8.24 198.81
       C5.49 201.54 2.75 204.27 0 207
       C-5.89 202.11 -11.3 196.84 -16.7 191.41
       C-17.66 190.46 -18.61 189.5 -19.57 188.54
       C-22.15 185.97 -24.72 183.39 -27.3 180.8
       C-29.99 178.1 -32.7 175.4 -35.4 172.7
       C-40.5 167.59 -45.6 162.48 -50.71 157.37
       C-56.52 151.54 -62.33 145.72 -68.15 139.9
       C-80.1 127.94 -92.05 115.97 -104 104
       C-103.06 102.89 -102.12 101.79 -101.17 100.68
       C-100.39 99.76 -100.39 99.76 -99.58 98.81
       C-97.31 96.21 -94.89 93.76 -92.45 91.31
       C-91.69 90.55 -91.69 90.55 -90.91 89.78
       C-89.86 88.72 -88.79 87.66 -87.73 86.6
       C-86.13 85.01 -84.54 83.41 -82.94 81.8
       C-81.9 80.77 -80.86 79.73 -79.82 78.69
       C-78.43 77.3 -78.43 77.3 -77.02 75.89
       C-74.83 73.75 -72.56 71.74 -70.25 69.75
       C-66.36 66.35 -62.67 62.81 -59.03 59.15
       C-58.39 58.5 -57.74 57.86 -57.08 57.19
       C-54.98 55.09 -52.88 52.98 -50.78 50.88
       C-49.31 49.41 -47.84 47.94 -46.38 46.47
       C-42.53 42.62 -38.69 38.77 -34.86 34.92
       C-30.93 30.99 -27 27.05 -23.07 23.12
       C-15.38 15.42 -7.69 7.71 0 0 Z"
    fill="url(#logoGradient)"
    transform="translate(149,9)"
  />

</svg>
