<?xml version="1.0" encoding="UTF-8"?>
<!-- Generator: visioncortex VTracer 0.6.4 -->
<svg
  version="1.1"
  xmlns="http://www.w3.org/2000/svg"
  width="225"
  height="225"
  viewBox="0 0 225 225"
>

  <!-- Gradient Definition -->
  <defs>
    <linearGradient id="logoGradient" x1="0%" y1="0%" x2="100%" y2="0%">
      <stop offset="0%" stop-color="rgb(217, 70, 239)" />
      <stop offset="50%" stop-color="rgb(220, 38, 38)" />
      <stop offset="100%" stop-color="rgb(251, 146, 60)" />
    </linearGradient>
  </defs>

  <!-- Background (Transparent) -->
  <path
    d="M0 0 C74.25 0 148.5 0 225 0 C225 74.25 225 148.5 225 225 C150.75 225 76.5 225 0 225 C0 150.75 0 76.5 0 0 Z"
    fill="transparent"
    transform="translate(0,0)"
  />

  <!-- Logo Shape -->
  <path
    d="M0 0 C5.89 4.89 11.3 10.16 16.7 15.59
       C17.66 16.54 18.61 17.5 19.57 18.46
       C22.15 21.03 24.72 23.61 27.3 26.2
       C29.99 28.9 32.7 31.6 35.4 34.3
       C40.5 39.41 45.6 44.52 50.71 49.63
       C56.52 55.46 62.33 61.28 68.15 67.1
       C80.1 79.06 92.05 91.03 104 103
       C103.06 104.11 102.12 105.21 101.17 106.32
       C100.65 106.94 100.12 107.55 99.58 108.19
       C97.31 110.79 94.89 113.24 92.45 115.69
       C91.94 116.19 91.43 116.7 90.91 117.22
       C89.86 118.28 88.79 119.34 87.73 120.4
       C86.13 121.99 84.54 123.59 82.94 125.2
       C81.9 126.23 80.86 127.27 79.82 128.31
       C77.02 131.11 77.02 131.11 74.83 133.25
       C72.56 135.26 70.25 137.25 66.36 140.65
       C62.67 144.19 59.03 147.85 54.98 151.91
       C52.88 154.02 50.78 156.12 46.38 160.53
       C38.69 168.23 30.93 176.01 23.07 183.88
       C15.38 191.58 7.69 199.29 0 207
       C-5.49 201.54 -10.41 197.72 -16.31 191.19
       C-22.81 185.24 -28.27 179.75 -31 177
       C-26.96 172.15 -22.73 167.59 -18.26 163.15
       C-14.2 159.09 -9.98 154.88 -5.56 150.47
       C2.15 142.77 9.95 134.99 17.83 127.12
       C25.55 119.41 33.27 111.7 41 104
       C36.14 96.9 32.44 93.21 23.71 84.52
       C15.02 75.84 6.88 67.74 -5.57 55.33
       C-13.71 47.22 -21.85 39.11 -30 31
       C-25.59 25.82 -20.72 20.59 -16.58 16.48
       C-11.62 11.56 -5.49 5.46 0 0 Z"
    fill="url(#logoGradient)"
    transform="translate(76,9)"
  />

</svg>
